<?xml version="1.0" encoding="UTF-8"?>
<svg width="300px" height="116px" viewBox="0 0 300 116" version="1.1" xmlns="http://www.w3.org/2000/svg" xmlns:xlink="http://www.w3.org/1999/xlink">
    <!-- Generator: Sketch 48.2 (47327) - http://www.bohemiancoding.com/sketch -->
    <title>Donerniza</title>
    <desc>Created with Sketch.</desc>
    <defs></defs>
    <g id="Page-1" stroke="none" stroke-width="1" fill="none" fill-rule="evenodd">
        <g id="Donerniza">
            <g id="doner-kebab-logo-by-Vexels" fill="#52514A" fill-rule="nonzero">
                <g id="Group">
                    <g id="Shape">
                        <path d="M113.985447,5.17969112 L97.2471291,21.8906332 L93.7479026,18.0120232 L110.486221,1.29839382 C110.486221,1.29839382 112.666454,-0.234015444 115.409781,0.219011583 C115.530231,1.81882625 115.759853,3.5046332 113.985447,5.17969112 Z"></path>
                        <path d="M7.1589114,111.848185 L19.5193125,99.5044865 L16.0217884,95.6245328 L3.65947207,107.968232 C3.65947207,107.968232 -0.465414365,113.8119 0.0436259464,115.221591 C0.398379374,115.725228 0.522660119,115.864517 0.522660119,115.864517 C0.522660119,115.864517 2.95273174,115.664988 7.1589114,111.848185 Z"></path>
                    </g>
                    <g transform="translate(7.873951, 5.598456)" id="Shape">
                        <path d="M98.8225578,30.4161853 C97.4035441,25.3869807 94.1803315,22.547668 94.1803315,22.547668 C94.1803315,22.547668 93.8315367,20.0160463 91.5348967,18.2525328 C91.3618825,17.9226718 91.1961039,17.6109498 91.0271332,17.3155753 L85.3985349,11.0726255 C85.1291181,10.8813822 84.8403356,10.6881236 84.536018,10.4926255 C82.9814446,7.98541313 80.5967015,7.4867027 80.5967015,7.4867027 C80.5967015,7.4867027 78.0708656,3.95138996 73.3754369,2.19414672 C69.8781256,-0.210277992 64.3486965,-1.14029344 63.4683037,2.20198456 C60.4312994,1.68155212 56.6796808,1.30555985 55.1204256,3.2222471 C55.4677307,2.95822394 55.8944138,2.99539768 55.8944138,2.99539768 C54.155973,3.90794595 56.1380806,6.33454054 58.9360999,11.0865097 C61.8252016,15.9938919 73.876816,29.6070965 73.876816,29.6070965 C73.876816,29.6070965 68.599779,24.5057838 63.959468,18.6088185 C55.6190383,8.91610039 54.3877225,5.23724324 54.7343892,3.84210811 C54.4081522,4.54169112 54.2838715,5.44528185 54.461993,6.63596139 C49.081105,5.18416988 47.337344,10.487027 48.5260978,13.8754363 C39.6044854,12.4124479 38.7613342,20.481166 39.627256,23.7027413 C31.5860364,22.7404788 28.444117,30.6732664 29.8490853,37.2256988 C24.104293,36.4112355 12.1271619,43.9946795 14.9609331,49.8782085 C4.51454062,50.7117066 6.899071,66.5219691 6.899071,66.5219691 C-1.03084919,68.3605019 -2.39644772,77.4656062 4.27832208,90.89339 L4.2183098,90.9487027 C4.64967465,91.7730193 5.13488029,92.524332 5.63987723,93.2445174 C5.68371598,93.3047568 5.72840598,93.3627568 5.76969102,93.4229961 C6.04123593,93.7989884 6.31554737,94.1689344 6.60709638,94.5169344 C6.77947207,94.7256448 6.9663188,94.9307722 7.15018621,95.1388108 C7.33575609,95.341251 7.5174954,95.547722 7.71051361,95.7409807 C8.02462042,96.062332 8.36085942,96.3691274 8.70284428,96.6768185 C8.76009003,96.7245174 8.81137712,96.7740077 8.86649478,96.8217066 C9.52471455,97.3905097 10.2108124,97.9393822 10.9701166,98.4354054 L11.0248087,98.3765097 C23.4179824,106.093645 32.1297647,105.134741 34.2908451,96.9000849 C34.2908451,96.9000849 49.1717618,100.23251 50.5101207,89.3000695 C55.9437856,92.5845714 63.7677266,80.3974054 63.2965664,74.3190502 C69.4401637,76.1369807 77.1364191,73.2531042 76.6439779,64.7508417 C79.6548066,65.8315676 87.3563822,65.3635367 86.436194,55.9137915 C89.5900307,57.3425174 94.7108656,55.7863707 93.6165991,50.0555676 C98.9155556,51.2341544 98.7612687,45.3002394 98.2960671,40.8257297 C101.513959,40.0746409 100.922349,34.2148494 98.8225578,30.4161853 Z M66.5604256,0.987567568 C65.3963577,2.19840154 67.5680786,7.37674903 72.5110047,13.6727722 C61.4510825,0.0351583012 66.6357602,0.910532819 66.5604256,0.987567568 Z M9.041637,57.5263707 C7.06953141,60.8048263 12.8717823,70.2545714 19.0247432,78.1040541 C1.35942705,68.1844865 9.77902189,56.2980695 9.041637,57.5263707 Z M19.4680254,42.593722 C17.1279722,45.6480154 21.1711398,57.5039768 26.3624146,64.0866409 C11.7104809,47.5626873 19.4680254,42.593722 19.4680254,42.593722 Z M39.4457295,48.5081544 C27.5943687,36.3599537 31.0938081,29.5674595 31.6960589,29.7501931 C37.5315081,31.5172896 37.6047145,39.1255907 38.0001146,42.307305 C38.4080704,45.602556 47.1453898,56.067861 47.1453898,56.067861 C47.1453898,56.067861 44.8923757,53.7621931 39.4457295,48.5081544 Z M50.695265,35.9951583 C38.4719132,22.293722 42.5776468,17.2154749 42.4931614,17.4611351 C41.4369879,20.5125174 44.1043421,20.4986332 47.099423,24.0744788 C50.1068467,27.6664479 48.0091835,31.0499305 52.3592224,36.0117297 C56.7164968,40.9813668 67.3465439,53.3257375 67.3465439,53.3257375 C67.3465439,53.3257375 55.7620462,41.3260077 50.695265,35.9951583 Z M56.5013464,22.7299537 C47.7055044,13.9238069 50.2966728,9.91217761 50.2966728,9.91217761 C50.0319378,13.307529 53.9963659,19.2315907 59.3227747,24.4204633 C64.5832126,29.5441699 69.0694496,36.1478842 69.0694496,36.1478842 C69.0694496,36.1478842 60.2776509,26.6043089 56.5013464,22.7299537 Z M89.8783876,18.5125251 C88.0175813,16.5991969 84.1101862,12.5477066 82.7171353,10.8421931 C80.8703745,8.57952124 78.4983998,5.45244788 77.2126049,4.737861 C77.2126049,4.737861 76.9736198,3.19850965 83.0561408,10.5766023 C86.7371066,15.0414826 88.8028484,17.3594672 89.8783876,18.5125251 C90.4961735,19.1476139 90.8881686,19.5482394 90.8881686,19.5482394 C90.8881686,19.5482394 90.6098138,19.2967568 89.8783876,18.5125251 Z"></path>
                    </g>
                </g>
            </g>
            <path d="M131.865157,65.1468018 C133.308624,69.6104744 134.6748,77.1776123 135.963726,87.8484422 C136.187327,90.3912445 136.376525,92.1629769 136.531325,93.1636926 L136.660325,93.1636926 C136.711925,92.8027787 136.823724,92.6223245 136.995725,92.6223245 L136.995725,92.8437933 C136.772124,93.5492158 136.660325,93.9839464 136.660325,94.1479982 L137.098925,97.8391443 C137.098925,98.3148944 136.64313,98.6758028 135.731526,98.9218804 C134.716722,98.9218804 134.114728,97.6176885 133.925527,95.0092656 C132.704322,80.851599 131.448736,70.6395304 130.15873,64.3727533 L130.15873,64.1512845 C130.15873,63.5114826 130.382328,63.1177643 130.82953,62.9701178 C131.087531,62.9865229 131.354128,63.2736092 131.629329,63.8313852 C133.590137,64.0446525 135.146721,64.1512845 136.299125,64.1512845 L136.866725,64.1512845 L136.763525,63.9298157 L136.763525,63.8313852 C136.763525,62.7486436 137.829914,59.7465415 139.962723,54.8249888 L142.697521,45.6955542 C147.014739,29.0935164 149.173316,19.7098967 149.173316,17.5444135 C149.310916,16.9702323 149.620513,16.6831461 150.102115,16.6831461 C150.721317,16.6831461 151.177113,18.1677922 151.469514,21.137129 C153.585123,35.9510026 154.642911,46.0564392 154.642911,51.453742 L154.642911,61.6659128 C154.677312,63.552508 154.83211,64.4957915 155.107311,64.4957915 L162.279706,64.4957915 C164.636116,64.6106277 165.814303,64.897714 165.814303,65.3570589 L165.814303,66.1198957 C165.814303,66.2183268 165.513306,66.4726032 164.911304,66.8827326 C163.758899,72.7721906 161.436924,81.8605216 157.945309,94.1479982 C157.790508,96.3955073 157.222914,97.5192449 156.24251,97.5192449 C155.554507,97.5192449 155.176111,97.0845143 155.107311,96.21504 L155.210511,95.6736719 C155.141711,95.3783787 155.107311,95.08309 155.107311,94.7877969 L155.107311,94.6893663 C155.348112,94.6893663 155.649109,93.6394508 156.01031,91.5395883 C158.590321,83.2057591 160.981096,74.9130672 163.182705,66.6612638 C163.148305,66.6612638 162.65811,66.6202515 161.712106,66.5382256 C161.092903,66.5382256 158.968726,66.5054158 155.339511,66.4397951 C155.339511,66.9319503 154.961115,67.2600489 154.204312,67.4241007 L153.972112,67.4241007 C153.50771,67.4241007 153.051915,67.0631922 152.604713,66.3413645 C138.960089,65.8233927 132.046988,65.4252091 131.86521,65.146802 L131.865157,65.1468018 Z M149.869915,22.6628027 C147.823106,33.900348 145.62153,43.5300417 143.26512,51.5521726 C143.26512,51.781845 141.897735,55.4729542 139.162923,62.6256108 C139.008123,63.1177661 138.930723,63.6673312 138.930723,64.2743227 C140.59913,64.2743227 144.546488,64.3071326 150.772914,64.3727533 L152.140313,64.4957915 C151.985513,62.9537049 151.908113,62.0432314 151.908113,61.7643434 C151.908113,60.7472225 151.951113,59.3692084 152.037113,57.6302598 C152.037113,50.3463618 151.503919,40.9709445 150.437515,29.5037267 L149.973115,22.6628027 L149.869915,22.6628027 Z M174.508896,50.6662975 C176.538505,50.6662975 177.811291,52.314993 178.327293,55.6124333 C178.413294,56.1538041 178.456293,56.7607864 178.456293,57.4333987 L178.456293,58.712996 C178.456293,63.4048762 177.106108,68.0556737 174.405696,72.6655281 C172.85769,74.4536922 171.688102,75.3477609 170.896899,75.3477609 L170.355099,75.3477609 C168.996294,75.3477609 168.127703,73.9533419 167.749301,71.164462 C167.749301,70.0325049 167.448305,67.7030049 166.846302,64.1758921 C166.846302,63.9298145 166.811902,63.6099184 166.743102,63.2161942 C166.743102,60.7062023 167.534294,57.8107322 169.1167,54.5296971 C169.460702,53.3157141 169.830498,52.6349095 170.226099,52.4872629 L170.458299,52.4872629 L170.690499,52.5856935 C171.842904,51.3060898 173.11569,50.6662975 174.508896,50.6662975 Z M169.1167,66.7596944 C169.271501,71.484385 169.753096,73.8466948 170.561499,73.8466948 C171.713904,73.4529706 172.952291,71.9847294 174.276696,69.4419272 C175.927903,65.3078229 176.753494,61.5510941 176.753494,58.1716279 C176.753494,55.2679118 176.1945,53.3731424 175.076496,52.4872629 C175.007695,52.4872629 174.784098,52.4544531 174.405696,52.3888324 C173.150091,52.7005307 172.247101,53.3075131 171.696698,54.2097978 C170.200292,55.9323412 169.4521,58.188019 169.4521,60.9768989 C169.297299,61.7643473 169.185501,63.6919265 169.1167,66.7596944 Z M183.07449,50.0757142 C183.642092,50.0757142 183.925889,54.2179589 183.925889,62.5025726 L183.925889,64.594222 L185.138488,64.4711838 L187.202486,64.4711838 C189.111695,64.4711838 190.246882,64.6270307 190.608084,64.938729 L190.737084,64.938729 L190.737084,64.8156908 C190.737084,62.3549144 190.900482,57.671307 191.227283,50.7647281 L191.691683,50.4202211 L191.820683,50.4202211 L192.310883,50.7647281 C192.551684,55.2925566 192.672082,59.976164 192.672082,64.8156908 L192.672082,68.5314445 C192.672082,72.9444367 192.388285,75.1508998 191.820683,75.1508998 C191.683082,75.2165205 191.519684,75.2493303 191.330483,75.2493303 L191.098283,75.2493303 C190.616681,74.9540372 190.375884,74.6095337 190.375884,74.2158094 C190.530685,71.3284985 190.608084,68.6626975 190.608084,66.2183263 C190.350083,66.3659729 190.143685,66.4397951 189.988884,66.4397951 C187.684075,66.2921485 185.860894,66.2183263 184.519288,66.2183263 L183.925889,66.2183263 L183.925889,66.3167569 C183.925889,72.5179133 183.719491,75.6184449 183.306689,75.6184449 C183.169089,75.6184449 182.962691,75.6922671 182.68749,75.8399137 C181.965087,75.7086723 181.603891,75.3641688 181.603891,74.8063928 C181.947892,58.3191913 182.309088,50.0757142 182.68749,50.0757142 L183.07449,50.0757142 Z M202.863074,50.5432593 L202.992074,50.5432593 C205.520485,50.5432593 207.094268,51.9294759 207.713471,54.7019506 C207.816671,54.7183557 207.868271,55.1038716 207.868271,55.8585097 L207.868271,56.6459542 C207.868271,59.2215667 206.432086,61.7643308 203.559674,64.2743227 C202.252468,65.1766074 201.117281,65.6359454 200.154077,65.6523506 L198.580278,65.6523506 C198.580278,69.3763254 199.672466,71.8780772 201.856875,73.1576809 C202.630878,73.4693792 203.301671,73.6252261 203.869274,73.6252261 C205.726882,73.6252261 207.816659,72.2800218 210.138669,69.589573 C210.276269,69.1958488 210.611666,68.9989897 211.144868,68.9989897 C211.334069,69.0318 211.428668,69.1138247 211.428668,69.2450661 C211.428668,70.6887215 210.241881,72.3374169 207.868271,74.1912018 C206.595465,74.9622451 205.357079,75.3477609 204.153073,75.3477609 L203.275874,75.3477609 C199.818659,75.3477609 197.539684,73.001856 196.438879,68.3099757 C196.335679,67.030372 196.284079,66.0706836 196.284079,65.4308818 L196.284079,64.7418679 C196.284079,59.1969185 197.668665,54.77579 200.437876,51.4783497 C201.33228,50.854953 202.140671,50.5432593 202.863074,50.5432593 Z M198.580278,65.0863748 L199.276877,65.0863748 C201.564487,65.0863748 203.568265,63.3146424 205.288273,59.7711245 C205.769875,58.5899518 206.010672,57.4005945 206.010672,56.2030166 C206.010672,53.9719127 205.056082,52.7005307 203.146874,52.3888324 L202.992074,52.3888324 C200.824865,52.8153669 199.354281,57.0478388 198.580278,65.0863748 Z M218.523662,51.0354121 C218.730063,51.0354121 219.02246,51.3142959 219.400862,51.8720719 C219.624463,51.8720719 219.968459,51.8392621 220.432861,51.7736413 C223.941676,51.7736413 226.908644,54.8413632 229.333854,60.9768989 C229.660656,62.5517957 229.824054,63.8395827 229.824054,64.8402984 C229.824054,70.122765 227.244082,73.6416224 222.08406,75.3969762 C221.757258,75.4790021 221.413262,75.5200144 221.052061,75.5200144 L219.529862,75.5200144 C219.529862,83.7390074 218.687071,93.4343208 217.001464,104.606245 C216.519862,107.509961 215.668471,108.961798 214.447266,108.961798 C214.051664,108.961798 213.673268,108.600889 213.312066,107.879062 C213.656068,105.91044 213.948465,104.860525 214.189266,104.729284 L214.189266,103.868016 C216.236074,90.8915222 217.259463,75.7005574 217.259463,58.2946661 C217.311064,58.2946661 217.397063,56.7197928 217.517463,53.5699991 L217.388463,53.3485303 C217.663664,51.8064438 218.04206,51.0354121 218.523662,51.0354121 Z M219.529862,52.6103011 L219.400862,52.8563775 C219.572862,61.8300086 219.658862,67.1205984 219.658862,68.7283056 C219.572861,70.1391507 219.529862,71.0250169 219.529862,71.3859308 C219.615862,71.5335774 219.658862,71.6976267 219.658862,71.8780836 L219.529862,71.8780836 L219.658862,72.12416 L219.658862,72.6163128 L219.529862,73.2068962 C219.959863,73.3709479 220.26086,73.4529726 220.432861,73.4529726 C221.946467,73.4529726 223.59765,72.6081187 225.386457,70.9183856 C226.831263,69.1466266 227.553656,67.3256795 227.553656,65.4554894 L227.553656,64.1266769 C227.553656,60.2058399 225.902473,56.6869825 222.600059,53.5699991 C221.722856,52.9301973 220.699467,52.6103011 219.529862,52.6103011 Z M234.003651,50.0757142 C234.571253,50.0757142 234.85505,54.2179589 234.85505,62.5025726 L234.85505,64.594222 L236.067649,64.4711838 L238.131647,64.4711838 C240.040855,64.4711838 241.176043,64.6270307 241.537245,64.938729 L241.666245,64.938729 L241.666245,64.8156908 C241.666245,62.3549144 241.829643,57.671307 242.156444,50.7647281 L242.620844,50.4202211 L242.749844,50.4202211 L243.240043,50.7647281 C243.480845,55.2925566 243.601243,59.976164 243.601243,64.8156908 L243.601243,68.5314445 C243.601243,72.9444367 243.317446,75.1508998 242.749844,75.1508998 C242.612243,75.2165205 242.448845,75.2493303 242.259644,75.2493303 L242.027444,75.2493303 C241.545842,74.9540372 241.305045,74.6095337 241.305045,74.2158094 C241.459846,71.3284985 241.537245,68.6626975 241.537245,66.2183263 C241.279244,66.3659729 241.072846,66.4397951 240.918045,66.4397951 C238.613236,66.2921485 236.790055,66.2183263 235.448449,66.2183263 L234.85505,66.2183263 L234.85505,66.3167569 C234.85505,72.5179133 234.648652,75.6184449 234.23585,75.6184449 C234.09825,75.6184449 233.891852,75.6922671 233.616651,75.8399137 C232.894248,75.7086723 232.533052,75.3641688 232.533052,74.8063928 C232.877053,58.3191913 233.238249,50.0757142 233.616651,50.0757142 L234.003651,50.0757142 Z M248.658039,50.22336 C248.86444,50.22336 249.010639,50.7155079 249.096639,51.6998184 C249.027839,52.5364824 248.993439,53.1434648 248.993439,53.5207838 L248.993439,57.6302598 C249.010639,65.7836321 249.750231,70.8363504 251.212237,72.7885663 C251.401438,73.0018336 251.625036,73.1084656 251.883037,73.1084656 L251.986237,73.1084656 C252.966641,72.6163103 253.96423,70.9594125 254.979035,68.1377222 C256.16584,64.2004801 256.759233,61.198378 256.759233,59.1313258 L256.759233,53.2993151 C256.466832,52.9055908 256.320633,52.3396208 256.320633,51.6013879 C256.320633,51.4701465 256.65603,51.1174405 257.326833,50.5432593 L257.559033,50.5432593 C258.659837,51.8064579 259.210231,53.6766198 259.210231,56.1538013 L259.210231,57.5318292 C259.210231,58.3848983 259.098432,60.0089864 258.874832,62.404142 C259.253233,67.7850396 259.777827,73.9696981 260.44863,80.9583029 C260.29383,81.8769928 259.915434,82.3363308 259.313431,82.3363308 L259.210231,82.3363308 C258.470628,82.3363308 258.100832,81.3438325 258.100832,79.3588063 C257.51603,73.4365379 257.223633,69.9422879 257.223633,68.8759515 L257.094633,68.8759515 C255.563826,73.1084868 253.904044,75.2247227 252.115237,75.2247227 L251.315437,75.2247227 C250.008232,75.2247227 248.933243,73.8467086 248.09044,71.0906391 C247.505637,69.1548284 247.21324,66.2265484 247.21324,62.3057115 L247.21324,61.1491524 C247.419641,54.3738148 247.789437,50.7319204 248.32264,50.22336 L248.658039,50.22336 Z M265.273227,51.7490337 C265.840829,51.7490337 266.124626,53.0450231 266.124626,55.6370409 C266.210626,57.6384723 266.253626,58.9836766 266.253626,59.6726939 C266.167625,67.3011006 266.047227,72.7721446 265.892426,76.0859901 L277.528217,75.2493303 C277.287416,74.8720113 277.167017,74.5193053 277.167017,74.1912018 C277.167017,70.844546 277.657212,64.2661692 278.637616,54.4558742 L278.895616,54.3574436 L279.024616,54.3574436 C279.351417,54.3574436 279.514816,55.7354577 279.514816,58.4915272 L279.514816,65.1109825 C279.514816,67.3420864 279.471816,70.4508205 279.385816,74.4372782 L279.024616,75.1508998 L280.495215,75.1508998 C280.822016,75.1508998 281.36381,75.0688751 282.120614,74.9048234 C282.774216,75.2165217 283.101013,75.6512523 283.101013,76.2090283 C282.860212,76.7503991 282.533415,78.6041562 282.120614,81.7703551 C280.641407,87.9058908 279.231023,90.9736126 277.889417,90.9736126 C277.562616,90.8587764 277.399217,90.7439418 277.399217,90.6291056 L277.399217,90.259991 C279.790027,82.5659636 280.985415,78.2760745 280.985415,77.3901951 C275.17179,77.6198675 270.097845,77.7757143 265.763426,77.8577402 C265.763426,78.4155162 265.307631,78.7682222 264.396027,78.9158688 C263.570424,78.653386 263.157628,78.1858455 263.157628,77.5132333 C263.983232,66.8826794 264.396027,58.8032516 264.396027,53.2747074 C264.396027,52.2575865 264.688424,51.7490337 265.273227,51.7490337 Z M290.402407,50.0757142 C293.687621,50.0757142 296.276193,53.4469272 298.168201,60.1894544 C298.546603,61.8627823 298.735801,63.3884408 298.735801,64.7664755 C298.735801,65.7179757 298.589603,66.7760937 298.297201,67.9408611 C299.432406,76.143449 300,80.8188539 300,81.9672162 C299.8968,82.2789145 299.707602,82.5003811 299.4324,82.6316225 L299.097001,82.6316225 C298.340197,82.6316225 297.875802,81.4668725 297.703802,79.1373375 L296.904002,71.1890697 C294.771193,74.0271651 292.457818,75.4461915 289.963808,75.4461915 C286.489393,75.4461915 284.391016,72.8296052 283.668613,67.5963542 C283.599812,66.1034832 283.522413,65.0863775 283.436413,64.5450067 C283.522413,64.2661188 283.565413,64.0118423 283.565413,63.7821699 C283.565413,63.1259629 283.488013,62.2565016 283.333213,61.17376 C283.711614,55.1530605 285.612194,51.5275711 289.035008,50.2971829 L290.402407,50.0757142 Z M285.268211,64.4465762 C285.268211,69.1548616 286.3346,72.1323563 288.467409,73.3791497 C288.84581,73.5924169 289.344605,73.699049 289.963808,73.699049 C292.647019,73.699049 294.771196,71.7796722 296.336403,67.9408611 L296.465403,67.3748854 C295.8118,60.337065 295.356005,56.8182076 295.098004,56.8182076 C293.463997,53.6356036 291.898814,52.0443254 290.402407,52.0443254 C288.028797,52.0443254 286.394815,55.05463 285.500411,61.0753294 C285.34561,62.3057176 285.268211,63.4294553 285.268211,64.4465762 Z" id="Донерница" fill="#FFC600"></path>
        </g>
    </g>
</svg>